<?xml version="1.0" encoding="utf-8"?>
<svg xmlns="http://www.w3.org/2000/svg" height="78" width="78" viewBox="0 0 78 78">
	<g>
		<ellipse cy="39" cx="39" stroke-width="2.80487022564132" ry="37.5975648871793" rx="37.5975648871793" stroke="#3280BE" fill="transparent" />
		<path id="path1" transform="rotate(0,39,39) translate(21.1743194214644,17) scale(1.40243511282066,1.40243511282066)  " fill="#3280BE" d="M11.240004,14.802992L12.658006,14.802992 12.658006,15.941992C13.627008,15.980993,14.277009,16.161994,14.75501,16.368993L14.336009,17.830994C13.960009,17.688994 13.294008,17.390994 12.253005,17.390994 11.313004,17.390994 11.009003,17.753995 11.009003,18.115994 11.009003,18.542994 11.515005,18.813996 12.744007,19.227996 14.46601,19.771996 15.160011,20.483996 15.160011,21.647998 15.160011,22.798999 14.24901,23.783 12.585006,24.042L12.585006,25.362002 11.168003,25.362002 11.168003,24.133C10.198002,24.092999,9.2590002,23.861001,8.7089991,23.575999L9.143,22.061999C9.7500013,22.359999 10.604002,22.631999 11.544005,22.631999 12.368006,22.631999 12.933007,22.346999 12.933007,21.829999 12.933007,21.337998 12.470006,21.026997 11.399004,20.703997 9.8520016,20.237996 8.7959999,19.590996 8.7959999,18.335995 8.7959999,17.196994 9.6920008,16.303994 11.240004,16.032992z M9.2732767,7.2517101L9.2707676,7.2612612C9.0358853,8.0894772 8.5909094,8.8628108 7.9490523,9.4989964 5.2740058,12.151005 0.97304485,17.530997 2.2130343,23.773003 2.265036,23.956002 3.8720292,29.626 12.677991,29.366006 21.554998,29.596001 23.150028,23.957009 23.213016,23.715995 24.440982,17.530997 20.140022,12.151005 17.465036,9.4989964 16.872896,8.9121205 16.448108,8.208244 16.20127,7.4520733L16.14923,7.2815062 15.976899,7.3264043C14.89981,7.5922143 13.848363,7.6909997 12.88105,7.6909997 11.432329,7.6909997 10.17016,7.4697339 9.2857079,7.2548005z M8.5850376,2.8819911L8.9130406,3.5349914C9.1637882,4.0352432,9.32766,4.5602447,9.4077353,5.0908238L9.4247631,5.2207491 9.582869,5.262262C10.823408,5.5784127,13.18094,5.98232,15.62031,5.3521563L15.984454,5.250364 16.005193,5.0913817C16.084962,4.5606787,16.248529,4.0354912,16.499032,3.5349914L16.827035,2.8819911 12.706006,4.6259944z M18.709514,0.00011147557C19.015142,-0.0042413526 19.31681,0.11899354 19.531989,0.34999245 19.845039,0.68599122 19.916023,1.1869984 19.708991,1.5959952L18.286994,4.4310023C17.67402,5.6570007 17.909006,7.1230046 18.872993,8.0779912 21.832036,11.013005 26.585023,17.004004 25.161012,24.161996 25.130983,24.288003 23.156009,31.648003 12.677991,31.364999 12.477003,31.370995 12.278028,31.374001 12.082044,31.374001 2.199057,31.374001 0.28200541,24.286996 0.26400042,24.213998 -1.1719728,17.004004 3.5810138,11.013005 6.5399956,8.0789983 7.505022,7.1230046 7.7400068,5.6570007 7.1250171,4.4310023L5.7020449,1.5929896C5.4970278,1.1859913 5.5690493,0.68399232 5.8830141,0.34799384 6.1980161,0.011995077 6.6909966,-0.092008857 7.1160449,0.087998966L12.706006,2.4539973 18.298042,0.086991953C18.43085,0.030429603,18.57059,0.0020899729,18.709514,0.00011147557z" />
	</g>
</svg>