<?xml version="1.0" encoding="utf-8"?>
<svg xmlns="http://www.w3.org/2000/svg" height="78" width="78" viewBox="0 0 78 78">
	<g>
		<ellipse cy="39" cx="39" stroke-width="2.75000655652656" ry="37.6249967217367" rx="37.6249967217367" stroke="#3280BE" fill="transparent" />
		<path id="path1" transform="rotate(0,39,39) translate(22.5481222823197,17) scale(1.37500327826328,1.37500327826328)  " fill="#3280BE" d="M2.0199045,8.4282792L2.0199045,29.041915C2.0199049,29.569931,2.4759603,29.999923,3.0368736,29.999923L21.545931,29.999923C21.747959,29.999923,21.911899,29.853927,21.911899,29.674911L21.911899,9.2289963 4.6139901,9.2289963C3.6599922,9.2289963,2.7726505,8.9379025,2.0361285,8.4398263z M4.6139901,2.0369992C3.1929932,2.0369992 2.0369959,3.1929986 2.0369959,4.6139978 2.0369959,6.0359974 3.1929932,7.1919971 4.6139901,7.1919971L15.713911,7.1919971 15.713911,5.6329601 4.6019208,5.6329601C4.0389173,5.6329603 3.5829146,5.176971 3.5829148,4.613984 3.5829146,4.0509978 4.0389173,3.5960085 4.6019208,3.5960088L15.713911,3.5960088 17.713911,3.5959697 17.713911,7.1919971 20.083915,7.1919971 20.083915,2.0369992z M4.6139901,0L22.101951,0 22.101951,2.0369992 22.083915,2.0369992 22.083915,7.1919971 23.929947,7.1919971 23.929947,9.2289963 23.911901,9.2289963 23.911901,29.674911C23.911901,30.956893,22.850986,31.999923,21.545931,31.999923L3.0368736,31.999923C1.3729314,31.999923,0.01990226,30.672897,0.019902182,29.041915L0.019902182,5.0332297 0.0060157636,4.8511513C0.0020218436,4.7725966 3.632158E-07,4.6935292 0,4.6139978 3.632158E-07,2.0699992 2.0699956,0 4.6139901,0z" />
	</g>
</svg>